<?xml version="1.0" encoding="iso-8859-1"?>
<!-- Generator: Adobe Illustrator 18.1.1, SVG Export Plug-In . SVG Version: 6.00 Build 0)  -->
<svg xmlns="http://www.w3.org/2000/svg" xmlns:xlink="http://www.w3.org/1999/xlink" version="1.1" id="Capa_1" x="0px" y="0px" viewBox="0 0 14 14" style="enable-background:new 0 0 14 14;" xml:space="preserve" width="512px" height="512px">
<g>
	<g>
		<path d="M12.993,1H1.007C0.451,1,0,1.446,0,1.997v7.006C0,9.555,0.45,10,1.007,10h11.986    C13.549,10,14,9.555,14,9.003V1.997C14,1.446,13.55,1,12.993,1z M13,9H1V2h12V9z" fill="#00b0f0"/>
		<path d="M8,12H6v-1H0v1c0,0.553,0.447,1,1,1h12c0.553,0,1-0.447,1-1v-1H8V12z" fill="#00b0f0"/>
	</g>
</g>
<g>
</g>
<g>
</g>
<g>
</g>
<g>
</g>
<g>
</g>
<g>
</g>
<g>
</g>
<g>
</g>
<g>
</g>
<g>
</g>
<g>
</g>
<g>
</g>
<g>
</g>
<g>
</g>
<g>
</g>
</svg>
